<svg data-v-d3f97b9e="" xmlns="http://www.w3.org/2000/svg" viewBox="0 0 457.0151850375575 163"><!----><!----><!---->
    <g data-v-d3f97b9e="" id="1c03ba3f-4e3e-4a7f-8836-2bdb5f070a5b" fill="#3E6866"
       transform="matrix(4.788507683852314,0,0,4.788507683852314,-2.5379013851741377,86.0965696819317)">
        <path d="M3.98 5.15L3.98 5.15Q5.38 5.15 6.25 5.78L6.25 5.78L6.25 5.78Q7.13 6.40 7.13 7.56L7.13 7.56L7.13 7.56Q7.13 8.44 6.72 9.05L6.72 9.05L6.72 9.05Q6.31 9.66 5.65 9.96L5.65 9.96L5.65 9.96Q4.98 10.26 4.19 10.26L4.19 10.26L4.19 10.26Q3.65 10.26 3.16 10.15L3.16 10.15L3.16 12.91L4.63 13.19L4.63 13.72L0.53 13.72L0.53 13.20L1.78 12.91L1.78 5.99L0.53 5.68L0.53 5.15L3.98 5.15ZM3.16 9.56L3.16 9.56Q3.40 9.66 3.86 9.66L3.86 9.66L3.86 9.66Q4.68 9.66 5.16 9.16L5.16 9.16L5.16 9.16Q5.64 8.67 5.64 7.67L5.64 7.67L5.64 7.67Q5.64 6.76 5.20 6.30L5.20 6.30L5.20 6.30Q4.76 5.84 4.02 5.84L4.02 5.84L4.02 5.84Q3.57 5.84 3.16 5.95L3.16 5.95L3.16 9.56ZM11.72 7.70L11.72 7.70Q11.00 7.70 10.39 7.95L10.39 7.95L10.39 12.91L11.98 13.22L11.98 13.72L7.80 13.72L7.80 13.23L9.00 12.89L9.00 7.83L7.80 7.67L7.80 7.24L9.83 6.71L10.36 6.71L10.36 7.35L10.36 7.35Q10.84 7.04 11.42 6.86L11.42 6.86L11.42 6.86Q12.00 6.68 12.50 6.68L12.50 6.68L12.50 6.68Q12.77 6.68 12.88 6.69L12.88 6.69L12.64 8.86L12.01 8.86L11.72 7.70ZM16.94 6.71L16.94 6.71Q18.65 6.71 19.45 7.70L19.45 7.70L19.45 7.70Q20.26 8.69 20.26 10.32L20.26 10.32L20.26 10.32Q20.26 11.89 19.45 12.87L19.45 12.87L19.45 12.87Q18.63 13.86 16.94 13.86L16.94 13.86L16.94 13.86Q15.26 13.86 14.44 12.87L14.44 12.87L14.44 12.87Q13.62 11.89 13.62 10.32L13.62 10.32L13.62 10.32Q13.62 8.71 14.43 7.71L14.43 7.71L14.43 7.71Q15.25 6.71 16.94 6.71L16.94 6.71ZM18.75 10.28L18.75 10.28Q18.75 8.93 18.34 8.20L18.34 8.20L18.34 8.20Q17.93 7.46 16.90 7.46L16.90 7.46L16.90 7.46Q15.92 7.46 15.53 8.20L15.53 8.20L15.53 8.20Q15.13 8.95 15.13 10.28L15.13 10.28L15.13 10.28Q15.13 11.62 15.54 12.36L15.54 12.36L15.54 12.36Q15.95 13.10 16.98 13.10L16.98 13.10L16.98 13.10Q17.99 13.10 18.37 12.37L18.37 12.37L18.37 12.37Q18.75 11.63 18.75 10.28L18.75 10.28ZM21 16.06L21 15.58L22.20 15.23L22.20 7.80L20.94 7.67L20.94 7.22L20.94 7.22Q21.81 7.01 22.86 6.86L22.86 6.86L22.86 6.86Q23.90 6.71 24.72 6.71L24.72 6.71L24.72 6.71Q26.70 6.71 27.51 7.65L27.51 7.65L27.51 7.65Q28.32 8.60 28.32 10.32L28.32 10.32L28.32 10.32Q28.32 11.86 27.52 12.79L27.52 12.79L27.52 12.79Q26.71 13.72 25.24 13.72L25.24 13.72L25.24 13.72Q24.65 13.72 24.09 13.54L24.09 13.54L24.26 12.96L24.26 12.96Q24.64 13.01 24.77 13.01L24.77 13.01L24.77 13.01Q25.98 13.01 26.39 12.29L26.39 12.29L26.39 12.29Q26.80 11.56 26.80 10.26L26.80 10.26L26.80 10.26Q26.80 9.02 26.40 8.25L26.40 8.25L26.40 8.25Q26.01 7.48 24.81 7.48L24.81 7.48L24.81 7.48Q24.22 7.48 23.59 7.67L23.59 7.67L23.59 15.20L25.03 15.55L25.03 16.06L21 16.06ZM32.52 13.87L32.52 13.87Q30.87 13.87 30.09 12.94L30.09 12.94L30.09 12.94Q29.30 12.01 29.30 10.32L29.30 10.32L29.30 10.32Q29.30 8.51 30.11 7.61L30.11 7.61L30.11 7.61Q30.91 6.71 32.37 6.71L32.37 6.71L32.37 6.71Q33.75 6.71 34.41 7.35L34.41 7.35L34.41 7.35Q35.06 7.99 35.06 9.37L35.06 9.37L35.06 9.37Q35.06 9.73 35.01 10.14L35.01 10.14L30.81 10.14L30.81 10.54L30.81 10.54Q30.81 11.77 31.34 12.40L31.34 12.40L31.34 12.40Q31.86 13.03 32.83 13.03L32.83 13.03L32.83 13.03Q33.73 13.03 34.87 12.71L34.87 12.71L34.97 13.20L34.97 13.20Q34.41 13.55 33.84 13.71L33.84 13.71L33.84 13.71Q33.26 13.87 32.52 13.87L32.52 13.87ZM30.84 9.56L33.60 9.41L33.60 9.10L33.60 9.10Q33.60 8.29 33.33 7.89L33.33 7.89L33.33 7.89Q33.07 7.49 32.45 7.49L32.45 7.49L32.45 7.49Q31.61 7.49 31.26 7.97L31.26 7.97L31.26 7.97Q30.90 8.46 30.84 9.56L30.84 9.56ZM39.76 7.70L39.76 7.70Q39.05 7.70 38.43 7.95L38.43 7.95L38.43 12.91L40.03 13.22L40.03 13.72L35.84 13.72L35.84 13.23L37.04 12.89L37.04 7.83L35.84 7.67L35.84 7.24L37.87 6.71L38.40 6.71L38.40 7.35L38.40 7.35Q38.88 7.04 39.46 6.86L39.46 6.86L39.46 6.86Q40.04 6.68 40.54 6.68L40.54 6.68L40.54 6.68Q40.81 6.68 40.92 6.69L40.92 6.69L40.68 8.86L40.05 8.86L39.76 7.70ZM45.72 13.55L45.72 13.55Q45.32 13.66 44.64 13.76L44.64 13.76L44.64 13.76Q43.96 13.85 43.60 13.85L43.60 13.85L43.60 13.85Q42.46 13.85 42.46 12.71L42.46 12.71L42.46 7.64L41.44 7.64L41.44 7.10L42.59 6.69L43.20 5.29L43.83 5.29L43.83 6.85L45.92 6.85L45.92 7.76L43.83 7.64L43.83 12.80L45.72 13.08L45.72 13.55ZM49.07 6.85L49.07 7.29L48.33 7.62L49.88 11.79L51.27 7.63L50.27 7.36L50.27 6.85L53.09 6.85L53.09 7.35L52.19 7.63L50.19 13.24L50.19 13.24Q49.67 14.67 49.11 15.37L49.11 15.37L49.11 15.37Q48.54 16.06 47.68 16.06L47.68 16.06L47.68 16.06Q47.07 16.06 46.41 15.71L46.41 15.71L46.51 15.20L47.19 15.20L47.19 15.20Q47.92 15.20 48.35 14.79L48.35 14.79L48.35 14.79Q48.78 14.38 49.18 13.41L49.18 13.41L46.83 7.62L46.05 7.29L46.05 6.85L49.07 6.85ZM56.20 5.15L62.41 5.15L62.41 7.06L61.78 7.06L61.49 5.95L58.88 5.95L58.88 9.31L60.75 9.31L61.01 8.39L61.60 8.39L61.60 10.96L61.01 10.96L60.70 10.00L58.88 10.00L58.88 12.88L60.44 13.17L60.44 13.72L56.20 13.72L56.20 13.20L57.48 12.91L57.48 5.96L56.20 5.67L56.20 5.15ZM65.00 5.66L65.00 5.66Q64.61 5.66 64.33 5.40L64.33 5.40L64.33 5.40Q64.05 5.14 64.05 4.76L64.05 4.76L64.05 4.76Q64.05 4.38 64.34 4.10L64.34 4.10L64.34 4.10Q64.62 3.82 65.00 3.82L65.00 3.82L65.00 3.82Q65.37 3.82 65.65 4.10L65.65 4.10L65.65 4.10Q65.94 4.38 65.94 4.76L65.94 4.76L65.94 4.76Q65.94 5.14 65.66 5.40L65.66 5.40L65.66 5.40Q65.38 5.66 65.00 5.66L65.00 5.66ZM66.91 13.72L63.11 13.72L63.11 13.19L64.32 12.91L64.32 7.81L63.11 7.67L63.11 7.24L65.27 6.71L65.70 6.71L65.70 12.91L66.91 13.19L66.91 13.72ZM70.15 7.27L70.15 7.27Q70.63 7.07 71.33 6.89L71.33 6.89L71.33 6.89Q72.03 6.71 72.65 6.71L72.65 6.71L72.65 6.71Q73.44 6.71 73.95 7.06L73.95 7.06L73.95 7.06Q74.47 7.42 74.47 8.22L74.47 8.22L74.47 12.91L75.68 13.26L75.68 13.72L72.03 13.72L72.03 13.26L73.08 12.91L73.08 8.53L73.08 8.53Q73.08 8.16 72.97 7.97L72.97 7.97L72.97 7.97Q72.87 7.78 72.60 7.71L72.60 7.71L72.60 7.71Q72.34 7.64 71.82 7.64L71.82 7.64L71.82 7.64Q70.90 7.64 70.15 7.85L70.15 7.85L70.15 12.91L71.20 13.26L71.20 13.72L67.56 13.72L67.56 13.26L68.77 12.91L68.77 7.81L67.56 7.67L67.56 7.22L69.71 6.71L70.15 6.71L70.15 7.27ZM81.19 13.06L81.19 13.06Q80.65 13.45 80.09 13.66L80.09 13.66L80.09 13.66Q79.53 13.86 78.86 13.86L78.86 13.86L78.86 13.86Q78.08 13.86 77.52 13.38L77.52 13.38L77.52 13.38Q76.97 12.89 76.70 12.09L76.70 12.09L76.70 12.09Q76.43 11.28 76.43 10.32L76.43 10.32L76.43 10.32Q76.43 8.62 77.25 7.67L77.25 7.67L77.25 7.67Q78.08 6.71 79.55 6.71L79.55 6.71L79.55 6.71Q79.91 6.71 80.27 6.78L80.27 6.78L80.27 6.78Q80.63 6.85 80.88 6.93L80.88 6.93L80.88 6.93Q81.13 7.01 81.14 7.04L81.14 7.04L81.14 4.63L79.94 4.49L79.94 4.06L82.08 3.53L82.53 3.53L82.53 12.80L83.73 13.09L83.73 13.55L83.73 13.55Q82.96 13.78 82.22 13.78L82.22 13.78L82.22 13.78Q81.87 13.78 81.56 13.58L81.56 13.58L81.56 13.58Q81.26 13.38 81.19 13.06L81.19 13.06ZM79.52 12.95L79.52 12.95Q79.97 12.95 80.41 12.78L80.41 12.78L80.41 12.78Q80.85 12.61 81.14 12.42L81.14 12.42L81.14 7.87L81.14 7.87Q80.51 7.46 79.72 7.46L79.72 7.46L79.72 7.46Q78.85 7.46 78.39 8.21L78.39 8.21L78.39 8.21Q77.94 8.96 77.94 10.28L77.94 10.28L77.94 10.28Q77.94 11.51 78.33 12.23L78.33 12.23L78.33 12.23Q78.72 12.95 79.52 12.95L79.52 12.95ZM87.57 13.87L87.57 13.87Q85.92 13.87 85.13 12.94L85.13 12.94L85.13 12.94Q84.35 12.01 84.35 10.32L84.35 10.32L84.35 10.32Q84.35 8.51 85.16 7.61L85.16 7.61L85.16 7.61Q85.96 6.71 87.42 6.71L87.42 6.71L87.42 6.71Q88.80 6.71 89.45 7.35L89.45 7.35L89.45 7.35Q90.10 7.99 90.10 9.37L90.10 9.37L90.10 9.37Q90.10 9.73 90.06 10.14L90.06 10.14L85.86 10.14L85.86 10.54L85.86 10.54Q85.86 11.77 86.39 12.40L86.39 12.40L86.39 12.40Q86.91 13.03 87.88 13.03L87.88 13.03L87.88 13.03Q88.77 13.03 89.92 12.71L89.92 12.71L90.02 13.20L90.02 13.20Q89.46 13.55 88.89 13.71L88.89 13.71L88.89 13.71Q88.31 13.87 87.57 13.87L87.57 13.87ZM85.89 9.56L88.65 9.41L88.65 9.10L88.65 9.10Q88.65 8.29 88.38 7.89L88.38 7.89L88.38 7.89Q88.12 7.49 87.50 7.49L87.50 7.49L87.50 7.49Q86.66 7.49 86.30 7.97L86.30 7.97L86.30 7.97Q85.95 8.46 85.89 9.56L85.89 9.56ZM94.81 7.70L94.81 7.70Q94.09 7.70 93.48 7.95L93.48 7.95L93.48 12.91L95.07 13.22L95.07 13.72L90.89 13.72L90.89 13.23L92.09 12.89L92.09 7.83L90.89 7.67L90.89 7.24L92.92 6.71L93.45 6.71L93.45 7.35L93.45 7.35Q93.93 7.04 94.51 6.86L94.51 6.86L94.51 6.86Q95.09 6.68 95.59 6.68L95.59 6.68L95.59 6.68Q95.86 6.68 95.97 6.69L95.97 6.69L95.73 8.86L95.10 8.86L94.81 7.70Z"></path>
    </g><!---->
    <g data-v-d3f97b9e="" id="4e3c237b-7727-46da-ab69-c6bc42f1b12a"
       transform="matrix(1.4379293781848441,0,0,1.4379293781848441,149.3033928485159,-9.014705762578338)" stroke="none"
       fill="black">
        <path d="M102.923 54.276l-6.311 6.407-41.002-41.05-41.026 41.05-6.395-6.407L55.584 6.887l.071.068.249-.071L75.281 26.08V12.474h8v22.35z"></path>
        <path d="M47.281 40.474h17v29h-17z"></path>
    </g><!---->
</svg>
